<svg width="640" height="430" viewBox="0 0 640 430" fill="none" xmlns="http://www.w3.org/2000/svg">
  <rect x="1" y="1" width="638" height="428" rx="20" fill="url(#bg)" stroke="#CED7E7"/>
  <rect x="105" y="172" width="300" height="170" rx="12" fill="#F7FAFF" stroke="#1F2A44" stroke-width="2"/>
  <rect x="128" y="195" width="70" height="70" rx="35" fill="#E9EFFF" stroke="#1F2A44" stroke-width="2"/>
  <path d="M163 195C169 195 174 196 180 199V230H149V205C154 199 159 195 163 195Z" fill="url(#pie)" stroke="#1F2A44" stroke-width="2"/>
  <path d="M210 191V260" stroke="#1F2A44" stroke-width="2"/>
  <rect x="224" y="244" width="18" height="16" fill="#BFD3FF" stroke="#1F2A44" stroke-width="2"/>
  <rect x="252" y="224" width="18" height="36" fill="#7CB2FF" stroke="#1F2A44" stroke-width="2"/>
  <rect x="280" y="213" width="18" height="47" fill="#5D82F2" stroke="#1F2A44" stroke-width="2"/>
  <rect x="308" y="204" width="18" height="56" fill="#85C0FF" stroke="#1F2A44" stroke-width="2"/>
  <rect x="125" y="278" width="90" height="46" rx="8" fill="#FFFFFF" stroke="#1F2A44" stroke-width="2"/>
  <path d="M136 314L168 292L190 303L210 286" stroke="#3D6FEA" stroke-width="2"/>
  <path d="M115 368H512" stroke="#1F2A44" stroke-width="2"/>
  <rect x="455" y="284" width="44" height="56" rx="8" fill="#F4F8FF" stroke="#1F2A44" stroke-width="2"/>
  <path d="M477 330V292C466 307 468 318 477 330Z" fill="#85C0FF"/>
  <path d="M477 330C485 314 487 303 477 292" stroke="#1F2A44" stroke-width="2"/>
  <rect x="386" y="132" width="76" height="104" rx="10" transform="rotate(13 386 132)" fill="#F8FBFF" stroke="#1F2A44" stroke-width="2"/>
  <line x1="406" y1="162" x2="448" y2="171" stroke="#A3B9D9" stroke-width="2"/>
  <line x1="403" y1="176" x2="446" y2="186" stroke="#A3B9D9" stroke-width="2"/>
  <line x1="401" y1="190" x2="438" y2="198" stroke="#A3B9D9" stroke-width="2"/>
  <rect x="435" y="193" width="76" height="104" rx="10" transform="rotate(15 435 193)" fill="#F8FBFF" stroke="#1F2A44" stroke-width="2"/>
  <line x1="454" y1="222" x2="495" y2="233" stroke="#A3B9D9" stroke-width="2"/>
  <line x1="451" y1="236" x2="492" y2="247" stroke="#A3B9D9" stroke-width="2"/>
  <line x1="447" y1="250" x2="486" y2="260" stroke="#A3B9D9" stroke-width="2"/>
  <defs>
    <linearGradient id="bg" x1="0" y1="0" x2="640" y2="430" gradientUnits="userSpaceOnUse">
      <stop stop-color="#DFF6FF"/>
      <stop offset="1" stop-color="#CBC9FF"/>
    </linearGradient>
    <linearGradient id="pie" x1="149" y1="199" x2="180" y2="230" gradientUnits="userSpaceOnUse">
      <stop stop-color="#6A9AFF"/>
      <stop offset="1" stop-color="#4F54DE"/>
    </linearGradient>
  </defs>
</svg>
